# MagicaVoxel @ Ephtracy

# group
o 

# material
mtllib spikes_enabled.mtl
usemtl palette

# normals
vn -1 0 0
vn 1 0 0
vn 0 0 1
vn 0 0 -1
vn 0 -1 0
vn 0 1 0

# texcoords
vt 0.306641 0.5
vt 0.974609 0.5

# verts
v -0.7 0 0.7
v -0.7 0 0.3
v -0.7 0 0.2
v -0.7 0 -0.2
v -0.7 0 -0.3
v -0.7 0 -0.7
v -0.7 0.1 0.7
v -0.7 0.1 0.3
v -0.7 0.1 0.2
v -0.7 0.1 -0.2
v -0.7 0.1 -0.3
v -0.7 0.1 -0.7
v -0.7 0.2 0.7
v -0.7 0.2 0.3
v -0.7 0.2 0.2
v -0.7 0.2 -0.2
v -0.7 0.2 -0.3
v -0.7 0.2 -0.7
v -0.6 0.2 0.7
v -0.6 0.2 0.4
v -0.6 0.2 0.2
v -0.6 0.2 -0.1
v -0.6 0.2 -0.3
v -0.6 0.2 -0.6
v -0.6 0.3 0.7
v -0.6 0.3 0.4
v -0.6 0.3 0.2
v -0.6 0.3 -0.1
v -0.6 0.3 -0.3
v -0.6 0.3 -0.6
v -0.5 0.3 0.7
v -0.5 0.3 0.5
v -0.5 0.3 0.2
v -0.5 0.3 0
v -0.5 0.3 -0.3
v -0.5 0.3 -0.5
v -0.5 0.4 0.7
v -0.5 0.4 0.5
v -0.5 0.4 0.2
v -0.5 0.4 0
v -0.5 0.4 -0.3
v -0.5 0.4 -0.5
v -0.4 0.4 0.7
v -0.4 0.4 0.6
v -0.4 0.4 0.2
v -0.4 0.4 0.1
v -0.4 0.4 -0.3
v -0.4 0.4 -0.4
v -0.4 0.5 0.7
v -0.4 0.5 0.6
v -0.4 0.5 0.2
v -0.4 0.5 0.1
v -0.4 0.5 -0.3
v -0.4 0.5 -0.4
v -0.2 0 0.7
v -0.2 0 0.3
v -0.2 0 0.2
v -0.2 0 -0.2
v -0.2 0 -0.3
v -0.2 0 -0.7
v -0.2 0.1 0.7
v -0.2 0.1 0.3
v -0.2 0.1 0.2
v -0.2 0.1 -0.2
v -0.2 0.1 -0.3
v -0.2 0.1 -0.7
v -0.2 0.2 0.7
v -0.2 0.2 0.3
v -0.2 0.2 0.2
v -0.2 0.2 -0.2
v -0.2 0.2 -0.3
v -0.2 0.2 -0.7
v -0.1 0.2 0.7
v -0.1 0.2 0.4
v -0.1 0.2 0.2
v -0.1 0.2 -0.1
v -0.1 0.2 -0.3
v -0.1 0.2 -0.6
v -0.1 0.3 0.7
v -0.1 0.3 0.4
v -0.1 0.3 0.2
v -0.1 0.3 -0.1
v -0.1 0.3 -0.3
v -0.1 0.3 -0.6
v 0 0.3 0.7
v 0 0.3 0.5
v 0 0.3 0.2
v 0 0.3 0
v 0 0.3 -0.3
v 0 0.3 -0.5
v 0 0.4 0.7
v 0 0.4 0.5
v 0 0.4 0.2
v 0 0.4 0
v 0 0.4 -0.3
v 0 0.4 -0.5
v 0.1 0.4 0.7
v 0.1 0.4 0.6
v 0.1 0.4 0.2
v 0.1 0.4 0.1
v 0.1 0.4 -0.3
v 0.1 0.4 -0.4
v 0.1 0.5 0.7
v 0.1 0.5 0.6
v 0.1 0.5 0.2
v 0.1 0.5 0.1
v 0.1 0.5 -0.3
v 0.1 0.5 -0.4
v 0.3 0 0.7
v 0.3 0 0.3
v 0.3 0 0.2
v 0.3 0 -0.2
v 0.3 0 -0.3
v 0.3 0 -0.7
v 0.3 0.1 0.7
v 0.3 0.1 0.3
v 0.3 0.1 0.2
v 0.3 0.1 -0.2
v 0.3 0.1 -0.3
v 0.3 0.1 -0.7
v 0.3 0.2 0.7
v 0.3 0.2 0.3
v 0.3 0.2 0.2
v 0.3 0.2 -0.2
v 0.3 0.2 -0.3
v 0.3 0.2 -0.7
v 0.4 0.2 0.7
v 0.4 0.2 0.4
v 0.4 0.2 0.2
v 0.4 0.2 -0.1
v 0.4 0.2 -0.3
v 0.4 0.2 -0.6
v 0.4 0.3 0.7
v 0.4 0.3 0.4
v 0.4 0.3 0.2
v 0.4 0.3 -0.1
v 0.4 0.3 -0.3
v 0.4 0.3 -0.6
v 0.5 0.3 0.7
v 0.5 0.3 0.5
v 0.5 0.3 0.2
v 0.5 0.3 0
v 0.5 0.3 -0.3
v 0.5 0.3 -0.5
v 0.5 0.4 0.7
v 0.5 0.4 0.5
v 0.5 0.4 0.2
v 0.5 0.4 0
v 0.5 0.4 -0.3
v 0.5 0.4 -0.5
v 0.6 0.4 0.7
v 0.6 0.4 0.6
v 0.6 0.4 0.2
v 0.6 0.4 0.1
v 0.6 0.4 -0.3
v 0.6 0.4 -0.4
v 0.6 0.5 0.7
v 0.6 0.5 0.6
v 0.6 0.5 0.2
v 0.6 0.5 0.1
v 0.6 0.5 -0.3
v 0.6 0.5 -0.4
v -0.3 0 0.7
v -0.3 0 0.3
v -0.3 0 0.2
v -0.3 0 -0.2
v -0.3 0 -0.3
v -0.3 0 -0.7
v -0.3 0.1 0.7
v -0.3 0.1 0.3
v -0.3 0.1 0.2
v -0.3 0.1 -0.2
v -0.3 0.1 -0.3
v -0.3 0.1 -0.7
v -0.3 0.2 0.4
v -0.3 0.2 0.3
v -0.3 0.2 -0.1
v -0.3 0.2 -0.2
v -0.3 0.2 -0.6
v -0.3 0.2 -0.7
v -0.3 0.3 0.5
v -0.3 0.3 0.4
v -0.3 0.3 0
v -0.3 0.3 -0.1
v -0.3 0.3 -0.5
v -0.3 0.3 -0.6
v -0.3 0.4 0.6
v -0.3 0.4 0.5
v -0.3 0.4 0.1
v -0.3 0.4 0
v -0.3 0.4 -0.4
v -0.3 0.4 -0.5
v -0.3 0.5 0.7
v -0.3 0.5 0.6
v -0.3 0.5 0.2
v -0.3 0.5 0.1
v -0.3 0.5 -0.3
v -0.3 0.5 -0.4
v 0.2 0 0.7
v 0.2 0 0.3
v 0.2 0 0.2
v 0.2 0 -0.2
v 0.2 0 -0.3
v 0.2 0 -0.7
v 0.2 0.1 0.7
v 0.2 0.1 0.3
v 0.2 0.1 0.2
v 0.2 0.1 -0.2
v 0.2 0.1 -0.3
v 0.2 0.1 -0.7
v 0.2 0.2 0.4
v 0.2 0.2 0.3
v 0.2 0.2 -0.1
v 0.2 0.2 -0.2
v 0.2 0.2 -0.6
v 0.2 0.2 -0.7
v 0.2 0.3 0.5
v 0.2 0.3 0.4
v 0.2 0.3 0
v 0.2 0.3 -0.1
v 0.2 0.3 -0.5
v 0.2 0.3 -0.6
v 0.2 0.4 0.6
v 0.2 0.4 0.5
v 0.2 0.4 0.1
v 0.2 0.4 0
v 0.2 0.4 -0.4
v 0.2 0.4 -0.5
v 0.2 0.5 0.7
v 0.2 0.5 0.6
v 0.2 0.5 0.2
v 0.2 0.5 0.1
v 0.2 0.5 -0.3
v 0.2 0.5 -0.4
v 0.7 0 0.7
v 0.7 0 0.3
v 0.7 0 0.2
v 0.7 0 -0.2
v 0.7 0 -0.3
v 0.7 0 -0.7
v 0.7 0.1 0.7
v 0.7 0.1 0.3
v 0.7 0.1 0.2
v 0.7 0.1 -0.2
v 0.7 0.1 -0.3
v 0.7 0.1 -0.7
v 0.7 0.2 0.4
v 0.7 0.2 0.3
v 0.7 0.2 -0.1
v 0.7 0.2 -0.2
v 0.7 0.2 -0.6
v 0.7 0.2 -0.7
v 0.7 0.3 0.5
v 0.7 0.3 0.4
v 0.7 0.3 0
v 0.7 0.3 -0.1
v 0.7 0.3 -0.5
v 0.7 0.3 -0.6
v 0.7 0.4 0.6
v 0.7 0.4 0.5
v 0.7 0.4 0.1
v 0.7 0.4 0
v 0.7 0.4 -0.4
v 0.7 0.4 -0.5
v 0.7 0.5 0.7
v 0.7 0.5 0.6
v 0.7 0.5 0.2
v 0.7 0.5 0.1
v 0.7 0.5 -0.3
v 0.7 0.5 -0.4
v -0.7 0 0.7
v -0.7 0.1 0.7
v -0.7 0.2 0.7
v -0.6 0.2 0.7
v -0.6 0.3 0.7
v -0.5 0.3 0.7
v -0.5 0.4 0.7
v -0.4 0.4 0.7
v -0.4 0.5 0.7
v -0.3 0 0.7
v -0.3 0.1 0.7
v -0.3 0.5 0.7
v -0.2 0 0.7
v -0.2 0.1 0.7
v -0.2 0.2 0.7
v -0.1 0.2 0.7
v -0.1 0.3 0.7
v 0 0.3 0.7
v 0 0.4 0.7
v 0.1 0.4 0.7
v 0.1 0.5 0.7
v 0.2 0 0.7
v 0.2 0.1 0.7
v 0.2 0.5 0.7
v 0.3 0 0.7
v 0.3 0.1 0.7
v 0.3 0.2 0.7
v 0.4 0.2 0.7
v 0.4 0.3 0.7
v 0.5 0.3 0.7
v 0.5 0.4 0.7
v 0.6 0.4 0.7
v 0.6 0.5 0.7
v 0.7 0 0.7
v 0.7 0.1 0.7
v 0.7 0.5 0.7
v -0.7 0 0.2
v -0.7 0.1 0.2
v -0.7 0.2 0.2
v -0.6 0.2 0.2
v -0.6 0.3 0.2
v -0.5 0.3 0.2
v -0.5 0.4 0.2
v -0.4 0.4 0.2
v -0.4 0.5 0.2
v -0.3 0 0.2
v -0.3 0.1 0.2
v -0.3 0.5 0.2
v -0.2 0 0.2
v -0.2 0.1 0.2
v -0.2 0.2 0.2
v -0.1 0.2 0.2
v -0.1 0.3 0.2
v 0 0.3 0.2
v 0 0.4 0.2
v 0.1 0.4 0.2
v 0.1 0.5 0.2
v 0.2 0 0.2
v 0.2 0.1 0.2
v 0.2 0.5 0.2
v 0.3 0 0.2
v 0.3 0.1 0.2
v 0.3 0.2 0.2
v 0.4 0.2 0.2
v 0.4 0.3 0.2
v 0.5 0.3 0.2
v 0.5 0.4 0.2
v 0.6 0.4 0.2
v 0.6 0.5 0.2
v 0.7 0 0.2
v 0.7 0.1 0.2
v 0.7 0.5 0.2
v -0.7 0 -0.3
v -0.7 0.1 -0.3
v -0.7 0.2 -0.3
v -0.6 0.2 -0.3
v -0.6 0.3 -0.3
v -0.5 0.3 -0.3
v -0.5 0.4 -0.3
v -0.4 0.4 -0.3
v -0.4 0.5 -0.3
v -0.3 0 -0.3
v -0.3 0.1 -0.3
v -0.3 0.5 -0.3
v -0.2 0 -0.3
v -0.2 0.1 -0.3
v -0.2 0.2 -0.3
v -0.1 0.2 -0.3
v -0.1 0.3 -0.3
v 0 0.3 -0.3
v 0 0.4 -0.3
v 0.1 0.4 -0.3
v 0.1 0.5 -0.3
v 0.2 0 -0.3
v 0.2 0.1 -0.3
v 0.2 0.5 -0.3
v 0.3 0 -0.3
v 0.3 0.1 -0.3
v 0.3 0.2 -0.3
v 0.4 0.2 -0.3
v 0.4 0.3 -0.3
v 0.5 0.3 -0.3
v 0.5 0.4 -0.3
v 0.6 0.4 -0.3
v 0.6 0.5 -0.3
v 0.7 0 -0.3
v 0.7 0.1 -0.3
v 0.7 0.5 -0.3
v -0.4 0.4 0.6
v -0.4 0.5 0.6
v -0.3 0.4 0.6
v -0.3 0.5 0.6
v 0.1 0.4 0.6
v 0.1 0.5 0.6
v 0.2 0.4 0.6
v 0.2 0.5 0.6
v 0.6 0.4 0.6
v 0.6 0.5 0.6
v 0.7 0.4 0.6
v 0.7 0.5 0.6
v -0.5 0.3 0.5
v -0.5 0.4 0.5
v -0.3 0.3 0.5
v -0.3 0.4 0.5
v 0 0.3 0.5
v 0 0.4 0.5
v 0.2 0.3 0.5
v 0.2 0.4 0.5
v 0.5 0.3 0.5
v 0.5 0.4 0.5
v 0.7 0.3 0.5
v 0.7 0.4 0.5
v -0.6 0.2 0.4
v -0.6 0.3 0.4
v -0.3 0.2 0.4
v -0.3 0.3 0.4
v -0.1 0.2 0.4
v -0.1 0.3 0.4
v 0.2 0.2 0.4
v 0.2 0.3 0.4
v 0.4 0.2 0.4
v 0.4 0.3 0.4
v 0.7 0.2 0.4
v 0.7 0.3 0.4
v -0.7 0 0.3
v -0.7 0.1 0.3
v -0.7 0.2 0.3
v -0.3 0 0.3
v -0.3 0.1 0.3
v -0.3 0.2 0.3
v -0.2 0 0.3
v -0.2 0.1 0.3
v -0.2 0.2 0.3
v 0.2 0 0.3
v 0.2 0.1 0.3
v 0.2 0.2 0.3
v 0.3 0 0.3
v 0.3 0.1 0.3
v 0.3 0.2 0.3
v 0.7 0 0.3
v 0.7 0.1 0.3
v 0.7 0.2 0.3
v -0.4 0.4 0.1
v -0.4 0.5 0.1
v -0.3 0.4 0.1
v -0.3 0.5 0.1
v 0.1 0.4 0.1
v 0.1 0.5 0.1
v 0.2 0.4 0.1
v 0.2 0.5 0.1
v 0.6 0.4 0.1
v 0.6 0.5 0.1
v 0.7 0.4 0.1
v 0.7 0.5 0.1
v -0.5 0.3 0
v -0.5 0.4 0
v -0.3 0.3 0
v -0.3 0.4 0
v 0 0.3 0
v 0 0.4 0
v 0.2 0.3 0
v 0.2 0.4 0
v 0.5 0.3 0
v 0.5 0.4 0
v 0.7 0.3 0
v 0.7 0.4 0
v -0.6 0.2 -0.1
v -0.6 0.3 -0.1
v -0.3 0.2 -0.1
v -0.3 0.3 -0.1
v -0.1 0.2 -0.1
v -0.1 0.3 -0.1
v 0.2 0.2 -0.1
v 0.2 0.3 -0.1
v 0.4 0.2 -0.1
v 0.4 0.3 -0.1
v 0.7 0.2 -0.1
v 0.7 0.3 -0.1
v -0.7 0 -0.2
v -0.7 0.1 -0.2
v -0.7 0.2 -0.2
v -0.3 0 -0.2
v -0.3 0.1 -0.2
v -0.3 0.2 -0.2
v -0.2 0 -0.2
v -0.2 0.1 -0.2
v -0.2 0.2 -0.2
v 0.2 0 -0.2
v 0.2 0.1 -0.2
v 0.2 0.2 -0.2
v 0.3 0 -0.2
v 0.3 0.1 -0.2
v 0.3 0.2 -0.2
v 0.7 0 -0.2
v 0.7 0.1 -0.2
v 0.7 0.2 -0.2
v -0.4 0.4 -0.4
v -0.4 0.5 -0.4
v -0.3 0.4 -0.4
v -0.3 0.5 -0.4
v 0.1 0.4 -0.4
v 0.1 0.5 -0.4
v 0.2 0.4 -0.4
v 0.2 0.5 -0.4
v 0.6 0.4 -0.4
v 0.6 0.5 -0.4
v 0.7 0.4 -0.4
v 0.7 0.5 -0.4
v -0.5 0.3 -0.5
v -0.5 0.4 -0.5
v -0.3 0.3 -0.5
v -0.3 0.4 -0.5
v 0 0.3 -0.5
v 0 0.4 -0.5
v 0.2 0.3 -0.5
v 0.2 0.4 -0.5
v 0.5 0.3 -0.5
v 0.5 0.4 -0.5
v 0.7 0.3 -0.5
v 0.7 0.4 -0.5
v -0.6 0.2 -0.6
v -0.6 0.3 -0.6
v -0.3 0.2 -0.6
v -0.3 0.3 -0.6
v -0.1 0.2 -0.6
v -0.1 0.3 -0.6
v 0.2 0.2 -0.6
v 0.2 0.3 -0.6
v 0.4 0.2 -0.6
v 0.4 0.3 -0.6
v 0.7 0.2 -0.6
v 0.7 0.3 -0.6
v -0.7 0 -0.7
v -0.7 0.1 -0.7
v -0.7 0.2 -0.7
v -0.3 0 -0.7
v -0.3 0.1 -0.7
v -0.3 0.2 -0.7
v -0.2 0 -0.7
v -0.2 0.1 -0.7
v -0.2 0.2 -0.7
v 0.2 0 -0.7
v 0.2 0.1 -0.7
v 0.2 0.2 -0.7
v 0.3 0 -0.7
v 0.3 0.1 -0.7
v 0.3 0.2 -0.7
v 0.7 0 -0.7
v 0.7 0.1 -0.7
v 0.7 0.2 -0.7
v -0.7 0 0.7
v -0.3 0 0.7
v -0.2 0 0.7
v 0.2 0 0.7
v 0.3 0 0.7
v 0.7 0 0.7
v -0.7 0 0.3
v -0.3 0 0.3
v -0.2 0 0.3
v 0.2 0 0.3
v 0.3 0 0.3
v 0.7 0 0.3
v -0.7 0 0.2
v -0.3 0 0.2
v -0.2 0 0.2
v 0.2 0 0.2
v 0.3 0 0.2
v 0.7 0 0.2
v -0.7 0 -0.2
v -0.3 0 -0.2
v -0.2 0 -0.2
v 0.2 0 -0.2
v 0.3 0 -0.2
v 0.7 0 -0.2
v -0.7 0 -0.3
v -0.3 0 -0.3
v -0.2 0 -0.3
v 0.2 0 -0.3
v 0.3 0 -0.3
v 0.7 0 -0.3
v -0.7 0 -0.7
v -0.3 0 -0.7
v -0.2 0 -0.7
v 0.2 0 -0.7
v 0.3 0 -0.7
v 0.7 0 -0.7
v -0.7 0.2 0.7
v -0.6 0.2 0.7
v -0.2 0.2 0.7
v -0.1 0.2 0.7
v 0.3 0.2 0.7
v 0.4 0.2 0.7
v -0.6 0.2 0.4
v -0.3 0.2 0.4
v -0.1 0.2 0.4
v 0.2 0.2 0.4
v 0.4 0.2 0.4
v 0.7 0.2 0.4
v -0.7 0.2 0.3
v -0.3 0.2 0.3
v -0.2 0.2 0.3
v 0.2 0.2 0.3
v 0.3 0.2 0.3
v 0.7 0.2 0.3
v -0.7 0.2 0.2
v -0.6 0.2 0.2
v -0.2 0.2 0.2
v -0.1 0.2 0.2
v 0.3 0.2 0.2
v 0.4 0.2 0.2
v -0.6 0.2 -0.1
v -0.3 0.2 -0.1
v -0.1 0.2 -0.1
v 0.2 0.2 -0.1
v 0.4 0.2 -0.1
v 0.7 0.2 -0.1
v -0.7 0.2 -0.2
v -0.3 0.2 -0.2
v -0.2 0.2 -0.2
v 0.2 0.2 -0.2
v 0.3 0.2 -0.2
v 0.7 0.2 -0.2
v -0.7 0.2 -0.3
v -0.6 0.2 -0.3
v -0.2 0.2 -0.3
v -0.1 0.2 -0.3
v 0.3 0.2 -0.3
v 0.4 0.2 -0.3
v -0.6 0.2 -0.6
v -0.3 0.2 -0.6
v -0.1 0.2 -0.6
v 0.2 0.2 -0.6
v 0.4 0.2 -0.6
v 0.7 0.2 -0.6
v -0.7 0.2 -0.7
v -0.3 0.2 -0.7
v -0.2 0.2 -0.7
v 0.2 0.2 -0.7
v 0.3 0.2 -0.7
v 0.7 0.2 -0.7
v -0.6 0.3 0.7
v -0.5 0.3 0.7
v -0.1 0.3 0.7
v 0 0.3 0.7
v 0.4 0.3 0.7
v 0.5 0.3 0.7
v -0.5 0.3 0.5
v -0.3 0.3 0.5
v 0 0.3 0.5
v 0.2 0.3 0.5
v 0.5 0.3 0.5
v 0.7 0.3 0.5
v -0.6 0.3 0.4
v -0.3 0.3 0.4
v -0.1 0.3 0.4
v 0.2 0.3 0.4
v 0.4 0.3 0.4
v 0.7 0.3 0.4
v -0.6 0.3 0.2
v -0.5 0.3 0.2
v -0.1 0.3 0.2
v 0 0.3 0.2
v 0.4 0.3 0.2
v 0.5 0.3 0.2
v -0.5 0.3 0
v -0.3 0.3 0
v 0 0.3 0
v 0.2 0.3 0
v 0.5 0.3 0
v 0.7 0.3 0
v -0.6 0.3 -0.1
v -0.3 0.3 -0.1
v -0.1 0.3 -0.1
v 0.2 0.3 -0.1
v 0.4 0.3 -0.1
v 0.7 0.3 -0.1
v -0.6 0.3 -0.3
v -0.5 0.3 -0.3
v -0.1 0.3 -0.3
v 0 0.3 -0.3
v 0.4 0.3 -0.3
v 0.5 0.3 -0.3
v -0.5 0.3 -0.5
v -0.3 0.3 -0.5
v 0 0.3 -0.5
v 0.2 0.3 -0.5
v 0.5 0.3 -0.5
v 0.7 0.3 -0.5
v -0.6 0.3 -0.6
v -0.3 0.3 -0.6
v -0.1 0.3 -0.6
v 0.2 0.3 -0.6
v 0.4 0.3 -0.6
v 0.7 0.3 -0.6
v -0.5 0.4 0.7
v -0.4 0.4 0.7
v 0 0.4 0.7
v 0.1 0.4 0.7
v 0.5 0.4 0.7
v 0.6 0.4 0.7
v -0.4 0.4 0.6
v -0.3 0.4 0.6
v 0.1 0.4 0.6
v 0.2 0.4 0.6
v 0.6 0.4 0.6
v 0.7 0.4 0.6
v -0.5 0.4 0.5
v -0.3 0.4 0.5
v 0 0.4 0.5
v 0.2 0.4 0.5
v 0.5 0.4 0.5
v 0.7 0.4 0.5
v -0.5 0.4 0.2
v -0.4 0.4 0.2
v 0 0.4 0.2
v 0.1 0.4 0.2
v 0.5 0.4 0.2
v 0.6 0.4 0.2
v -0.4 0.4 0.1
v -0.3 0.4 0.1
v 0.1 0.4 0.1
v 0.2 0.4 0.1
v 0.6 0.4 0.1
v 0.7 0.4 0.1
v -0.5 0.4 0
v -0.3 0.4 0
v 0 0.4 0
v 0.2 0.4 0
v 0.5 0.4 0
v 0.7 0.4 0
v -0.5 0.4 -0.3
v -0.4 0.4 -0.3
v 0 0.4 -0.3
v 0.1 0.4 -0.3
v 0.5 0.4 -0.3
v 0.6 0.4 -0.3
v -0.4 0.4 -0.4
v -0.3 0.4 -0.4
v 0.1 0.4 -0.4
v 0.2 0.4 -0.4
v 0.6 0.4 -0.4
v 0.7 0.4 -0.4
v -0.5 0.4 -0.5
v -0.3 0.4 -0.5
v 0 0.4 -0.5
v 0.2 0.4 -0.5
v 0.5 0.4 -0.5
v 0.7 0.4 -0.5
v -0.4 0.5 0.7
v -0.3 0.5 0.7
v 0.1 0.5 0.7
v 0.2 0.5 0.7
v 0.6 0.5 0.7
v 0.7 0.5 0.7
v -0.4 0.5 0.6
v -0.3 0.5 0.6
v 0.1 0.5 0.6
v 0.2 0.5 0.6
v 0.6 0.5 0.6
v 0.7 0.5 0.6
v -0.4 0.5 0.2
v -0.3 0.5 0.2
v 0.1 0.5 0.2
v 0.2 0.5 0.2
v 0.6 0.5 0.2
v 0.7 0.5 0.2
v -0.4 0.5 0.1
v -0.3 0.5 0.1
v 0.1 0.5 0.1
v 0.2 0.5 0.1
v 0.6 0.5 0.1
v 0.7 0.5 0.1
v -0.4 0.5 -0.3
v -0.3 0.5 -0.3
v 0.1 0.5 -0.3
v 0.2 0.5 -0.3
v 0.6 0.5 -0.3
v 0.7 0.5 -0.3
v -0.4 0.5 -0.4
v -0.3 0.5 -0.4
v 0.1 0.5 -0.4
v 0.2 0.5 -0.4
v 0.6 0.5 -0.4
v 0.7 0.5 -0.4

# faces
f 7/1/1 2/1/1 1/1/1
f 8/1/1 2/1/1 7/1/1
f 9/1/1 4/1/1 3/1/1
f 10/1/1 4/1/1 9/1/1
f 11/1/1 6/1/1 5/1/1
f 12/1/1 6/1/1 11/1/1
f 13/2/1 8/2/1 7/2/1
f 14/2/1 8/2/1 13/2/1
f 15/2/1 10/2/1 9/2/1
f 16/2/1 10/2/1 15/2/1
f 17/2/1 12/2/1 11/2/1
f 18/2/1 12/2/1 17/2/1
f 25/2/1 20/2/1 19/2/1
f 26/2/1 20/2/1 25/2/1
f 27/2/1 22/2/1 21/2/1
f 28/2/1 22/2/1 27/2/1
f 29/2/1 24/2/1 23/2/1
f 30/2/1 24/2/1 29/2/1
f 37/2/1 32/2/1 31/2/1
f 38/2/1 32/2/1 37/2/1
f 39/2/1 34/2/1 33/2/1
f 40/2/1 34/2/1 39/2/1
f 41/2/1 36/2/1 35/2/1
f 42/2/1 36/2/1 41/2/1
f 49/2/1 44/2/1 43/2/1
f 50/2/1 44/2/1 49/2/1
f 51/2/1 46/2/1 45/2/1
f 52/2/1 46/2/1 51/2/1
f 53/2/1 48/2/1 47/2/1
f 54/2/1 48/2/1 53/2/1
f 61/1/1 56/1/1 55/1/1
f 62/1/1 56/1/1 61/1/1
f 63/1/1 58/1/1 57/1/1
f 64/1/1 58/1/1 63/1/1
f 65/1/1 60/1/1 59/1/1
f 66/1/1 60/1/1 65/1/1
f 67/2/1 62/2/1 61/2/1
f 68/2/1 62/2/1 67/2/1
f 69/2/1 64/2/1 63/2/1
f 70/2/1 64/2/1 69/2/1
f 71/2/1 66/2/1 65/2/1
f 72/2/1 66/2/1 71/2/1
f 79/2/1 74/2/1 73/2/1
f 80/2/1 74/2/1 79/2/1
f 81/2/1 76/2/1 75/2/1
f 82/2/1 76/2/1 81/2/1
f 83/2/1 78/2/1 77/2/1
f 84/2/1 78/2/1 83/2/1
f 91/2/1 86/2/1 85/2/1
f 92/2/1 86/2/1 91/2/1
f 93/2/1 88/2/1 87/2/1
f 94/2/1 88/2/1 93/2/1
f 95/2/1 90/2/1 89/2/1
f 96/2/1 90/2/1 95/2/1
f 103/2/1 98/2/1 97/2/1
f 104/2/1 98/2/1 103/2/1
f 105/2/1 100/2/1 99/2/1
f 106/2/1 100/2/1 105/2/1
f 107/2/1 102/2/1 101/2/1
f 108/2/1 102/2/1 107/2/1
f 115/1/1 110/1/1 109/1/1
f 116/1/1 110/1/1 115/1/1
f 117/1/1 112/1/1 111/1/1
f 118/1/1 112/1/1 117/1/1
f 119/1/1 114/1/1 113/1/1
f 120/1/1 114/1/1 119/1/1
f 121/2/1 116/2/1 115/2/1
f 122/2/1 116/2/1 121/2/1
f 123/2/1 118/2/1 117/2/1
f 124/2/1 118/2/1 123/2/1
f 125/2/1 120/2/1 119/2/1
f 126/2/1 120/2/1 125/2/1
f 133/2/1 128/2/1 127/2/1
f 134/2/1 128/2/1 133/2/1
f 135/2/1 130/2/1 129/2/1
f 136/2/1 130/2/1 135/2/1
f 137/2/1 132/2/1 131/2/1
f 138/2/1 132/2/1 137/2/1
f 145/2/1 140/2/1 139/2/1
f 146/2/1 140/2/1 145/2/1
f 147/2/1 142/2/1 141/2/1
f 148/2/1 142/2/1 147/2/1
f 149/2/1 144/2/1 143/2/1
f 150/2/1 144/2/1 149/2/1
f 157/2/1 152/2/1 151/2/1
f 158/2/1 152/2/1 157/2/1
f 159/2/1 154/2/1 153/2/1
f 160/2/1 154/2/1 159/2/1
f 161/2/1 156/2/1 155/2/1
f 162/2/1 156/2/1 161/2/1
f 163/1/2 164/1/2 169/1/2
f 169/1/2 164/1/2 170/1/2
f 165/1/2 166/1/2 171/1/2
f 171/1/2 166/1/2 172/1/2
f 167/1/2 168/1/2 173/1/2
f 173/1/2 168/1/2 174/1/2
f 169/2/2 170/2/2 175/2/2
f 175/2/2 170/2/2 176/2/2
f 171/2/2 172/2/2 177/2/2
f 177/2/2 172/2/2 178/2/2
f 173/2/2 174/2/2 179/2/2
f 179/2/2 174/2/2 180/2/2
f 169/2/2 175/2/2 181/2/2
f 181/2/2 175/2/2 182/2/2
f 171/2/2 177/2/2 183/2/2
f 183/2/2 177/2/2 184/2/2
f 173/2/2 179/2/2 185/2/2
f 185/2/2 179/2/2 186/2/2
f 169/2/2 181/2/2 187/2/2
f 187/2/2 181/2/2 188/2/2
f 171/2/2 183/2/2 189/2/2
f 189/2/2 183/2/2 190/2/2
f 173/2/2 185/2/2 191/2/2
f 191/2/2 185/2/2 192/2/2
f 169/2/2 187/2/2 193/2/2
f 193/2/2 187/2/2 194/2/2
f 171/2/2 189/2/2 195/2/2
f 195/2/2 189/2/2 196/2/2
f 173/2/2 191/2/2 197/2/2
f 197/2/2 191/2/2 198/2/2
f 199/1/2 200/1/2 205/1/2
f 205/1/2 200/1/2 206/1/2
f 201/1/2 202/1/2 207/1/2
f 207/1/2 202/1/2 208/1/2
f 203/1/2 204/1/2 209/1/2
f 209/1/2 204/1/2 210/1/2
f 205/2/2 206/2/2 211/2/2
f 211/2/2 206/2/2 212/2/2
f 207/2/2 208/2/2 213/2/2
f 213/2/2 208/2/2 214/2/2
f 209/2/2 210/2/2 215/2/2
f 215/2/2 210/2/2 216/2/2
f 205/2/2 211/2/2 217/2/2
f 217/2/2 211/2/2 218/2/2
f 207/2/2 213/2/2 219/2/2
f 219/2/2 213/2/2 220/2/2
f 209/2/2 215/2/2 221/2/2
f 221/2/2 215/2/2 222/2/2
f 205/2/2 217/2/2 223/2/2
f 223/2/2 217/2/2 224/2/2
f 207/2/2 219/2/2 225/2/2
f 225/2/2 219/2/2 226/2/2
f 209/2/2 221/2/2 227/2/2
f 227/2/2 221/2/2 228/2/2
f 205/2/2 223/2/2 229/2/2
f 229/2/2 223/2/2 230/2/2
f 207/2/2 225/2/2 231/2/2
f 231/2/2 225/2/2 232/2/2
f 209/2/2 227/2/2 233/2/2
f 233/2/2 227/2/2 234/2/2
f 235/1/2 236/1/2 241/1/2
f 241/1/2 236/1/2 242/1/2
f 237/1/2 238/1/2 243/1/2
f 243/1/2 238/1/2 244/1/2
f 239/1/2 240/1/2 245/1/2
f 245/1/2 240/1/2 246/1/2
f 241/2/2 242/2/2 247/2/2
f 247/2/2 242/2/2 248/2/2
f 243/2/2 244/2/2 249/2/2
f 249/2/2 244/2/2 250/2/2
f 245/2/2 246/2/2 251/2/2
f 251/2/2 246/2/2 252/2/2
f 241/2/2 247/2/2 253/2/2
f 253/2/2 247/2/2 254/2/2
f 243/2/2 249/2/2 255/2/2
f 255/2/2 249/2/2 256/2/2
f 245/2/2 251/2/2 257/2/2
f 257/2/2 251/2/2 258/2/2
f 241/2/2 253/2/2 259/2/2
f 259/2/2 253/2/2 260/2/2
f 243/2/2 255/2/2 261/2/2
f 261/2/2 255/2/2 262/2/2
f 245/2/2 257/2/2 263/2/2
f 263/2/2 257/2/2 264/2/2
f 241/2/2 259/2/2 265/2/2
f 265/2/2 259/2/2 266/2/2
f 243/2/2 261/2/2 267/2/2
f 267/2/2 261/2/2 268/2/2
f 245/2/2 263/2/2 269/2/2
f 269/2/2 263/2/2 270/2/2
f 274/2/3 273/2/3 272/2/3
f 276/2/3 275/2/3 274/2/3
f 278/2/3 277/2/3 276/2/3
f 280/1/3 272/1/3 271/1/3
f 281/2/3 279/2/3 278/2/3
f 281/1/3 272/1/3 280/1/3
f 281/2/3 274/2/3 272/2/3
f 281/2/3 278/2/3 276/2/3
f 281/2/3 276/2/3 274/2/3
f 282/2/3 279/2/3 281/2/3
f 286/2/3 285/2/3 284/2/3
f 288/2/3 287/2/3 286/2/3
f 290/2/3 289/2/3 288/2/3
f 292/1/3 284/1/3 283/1/3
f 293/2/3 291/2/3 290/2/3
f 293/1/3 284/1/3 292/1/3
f 293/2/3 286/2/3 284/2/3
f 293/2/3 290/2/3 288/2/3
f 293/2/3 288/2/3 286/2/3
f 294/2/3 291/2/3 293/2/3
f 298/2/3 297/2/3 296/2/3
f 300/2/3 299/2/3 298/2/3
f 302/2/3 301/2/3 300/2/3
f 304/1/3 296/1/3 295/1/3
f 305/2/3 303/2/3 302/2/3
f 305/1/3 296/1/3 304/1/3
f 305/2/3 298/2/3 296/2/3
f 305/2/3 302/2/3 300/2/3
f 305/2/3 300/2/3 298/2/3
f 306/2/3 303/2/3 305/2/3
f 310/2/3 309/2/3 308/2/3
f 312/2/3 311/2/3 310/2/3
f 314/2/3 313/2/3 312/2/3
f 316/1/3 308/1/3 307/1/3
f 317/2/3 315/2/3 314/2/3
f 317/1/3 308/1/3 316/1/3
f 317/2/3 310/2/3 308/2/3
f 317/2/3 314/2/3 312/2/3
f 317/2/3 312/2/3 310/2/3
f 318/2/3 315/2/3 317/2/3
f 322/2/3 321/2/3 320/2/3
f 324/2/3 323/2/3 322/2/3
f 326/2/3 325/2/3 324/2/3
f 328/1/3 320/1/3 319/1/3
f 329/2/3 327/2/3 326/2/3
f 329/1/3 320/1/3 328/1/3
f 329/2/3 322/2/3 320/2/3
f 329/2/3 326/2/3 324/2/3
f 329/2/3 324/2/3 322/2/3
f 330/2/3 327/2/3 329/2/3
f 334/2/3 333/2/3 332/2/3
f 336/2/3 335/2/3 334/2/3
f 338/2/3 337/2/3 336/2/3
f 340/1/3 332/1/3 331/1/3
f 341/2/3 339/2/3 338/2/3
f 341/1/3 332/1/3 340/1/3
f 341/2/3 334/2/3 332/2/3
f 341/2/3 338/2/3 336/2/3
f 341/2/3 336/2/3 334/2/3
f 342/2/3 339/2/3 341/2/3
f 346/2/3 345/2/3 344/2/3
f 348/2/3 347/2/3 346/2/3
f 350/2/3 349/2/3 348/2/3
f 352/1/3 344/1/3 343/1/3
f 353/2/3 351/2/3 350/2/3
f 353/1/3 344/1/3 352/1/3
f 353/2/3 346/2/3 344/2/3
f 353/2/3 350/2/3 348/2/3
f 353/2/3 348/2/3 346/2/3
f 354/2/3 351/2/3 353/2/3
f 358/2/3 357/2/3 356/2/3
f 360/2/3 359/2/3 358/2/3
f 362/2/3 361/2/3 360/2/3
f 364/1/3 356/1/3 355/1/3
f 365/2/3 363/2/3 362/2/3
f 365/1/3 356/1/3 364/1/3
f 365/2/3 358/2/3 356/2/3
f 365/2/3 362/2/3 360/2/3
f 365/2/3 360/2/3 358/2/3
f 366/2/3 363/2/3 365/2/3
f 370/2/3 369/2/3 368/2/3
f 372/2/3 371/2/3 370/2/3
f 374/2/3 373/2/3 372/2/3
f 376/1/3 368/1/3 367/1/3
f 377/2/3 375/2/3 374/2/3
f 377/1/3 368/1/3 376/1/3
f 377/2/3 370/2/3 368/2/3
f 377/2/3 374/2/3 372/2/3
f 377/2/3 372/2/3 370/2/3
f 378/2/3 375/2/3 377/2/3
f 379/2/4 380/2/4 381/2/4
f 381/2/4 380/2/4 382/2/4
f 383/2/4 384/2/4 385/2/4
f 385/2/4 384/2/4 386/2/4
f 387/2/4 388/2/4 389/2/4
f 389/2/4 388/2/4 390/2/4
f 391/2/4 392/2/4 393/2/4
f 393/2/4 392/2/4 394/2/4
f 395/2/4 396/2/4 397/2/4
f 397/2/4 396/2/4 398/2/4
f 399/2/4 400/2/4 401/2/4
f 401/2/4 400/2/4 402/2/4
f 403/2/4 404/2/4 405/2/4
f 405/2/4 404/2/4 406/2/4
f 407/2/4 408/2/4 409/2/4
f 409/2/4 408/2/4 410/2/4
f 411/2/4 412/2/4 413/2/4
f 413/2/4 412/2/4 414/2/4
f 415/1/4 416/1/4 418/1/4
f 416/2/4 417/2/4 419/2/4
f 418/1/4 416/1/4 419/1/4
f 419/2/4 417/2/4 420/2/4
f 421/1/4 422/1/4 424/1/4
f 422/2/4 423/2/4 425/2/4
f 424/1/4 422/1/4 425/1/4
f 425/2/4 423/2/4 426/2/4
f 427/1/4 428/1/4 430/1/4
f 428/2/4 429/2/4 431/2/4
f 430/1/4 428/1/4 431/1/4
f 431/2/4 429/2/4 432/2/4
f 433/2/4 434/2/4 435/2/4
f 435/2/4 434/2/4 436/2/4
f 437/2/4 438/2/4 439/2/4
f 439/2/4 438/2/4 440/2/4
f 441/2/4 442/2/4 443/2/4
f 443/2/4 442/2/4 444/2/4
f 445/2/4 446/2/4 447/2/4
f 447/2/4 446/2/4 448/2/4
f 449/2/4 450/2/4 451/2/4
f 451/2/4 450/2/4 452/2/4
f 453/2/4 454/2/4 455/2/4
f 455/2/4 454/2/4 456/2/4
f 457/2/4 458/2/4 459/2/4
f 459/2/4 458/2/4 460/2/4
f 461/2/4 462/2/4 463/2/4
f 463/2/4 462/2/4 464/2/4
f 465/2/4 466/2/4 467/2/4
f 467/2/4 466/2/4 468/2/4
f 469/1/4 470/1/4 472/1/4
f 470/2/4 471/2/4 473/2/4
f 472/1/4 470/1/4 473/1/4
f 473/2/4 471/2/4 474/2/4
f 475/1/4 476/1/4 478/1/4
f 476/2/4 477/2/4 479/2/4
f 478/1/4 476/1/4 479/1/4
f 479/2/4 477/2/4 480/2/4
f 481/1/4 482/1/4 484/1/4
f 482/2/4 483/2/4 485/2/4
f 484/1/4 482/1/4 485/1/4
f 485/2/4 483/2/4 486/2/4
f 487/2/4 488/2/4 489/2/4
f 489/2/4 488/2/4 490/2/4
f 491/2/4 492/2/4 493/2/4
f 493/2/4 492/2/4 494/2/4
f 495/2/4 496/2/4 497/2/4
f 497/2/4 496/2/4 498/2/4
f 499/2/4 500/2/4 501/2/4
f 501/2/4 500/2/4 502/2/4
f 503/2/4 504/2/4 505/2/4
f 505/2/4 504/2/4 506/2/4
f 507/2/4 508/2/4 509/2/4
f 509/2/4 508/2/4 510/2/4
f 511/2/4 512/2/4 513/2/4
f 513/2/4 512/2/4 514/2/4
f 515/2/4 516/2/4 517/2/4
f 517/2/4 516/2/4 518/2/4
f 519/2/4 520/2/4 521/2/4
f 521/2/4 520/2/4 522/2/4
f 523/1/4 524/1/4 526/1/4
f 524/2/4 525/2/4 527/2/4
f 526/1/4 524/1/4 527/1/4
f 527/2/4 525/2/4 528/2/4
f 529/1/4 530/1/4 532/1/4
f 530/2/4 531/2/4 533/2/4
f 532/1/4 530/1/4 533/1/4
f 533/2/4 531/2/4 534/2/4
f 535/1/4 536/1/4 538/1/4
f 536/2/4 537/2/4 539/2/4
f 538/1/4 536/1/4 539/1/4
f 539/2/4 537/2/4 540/2/4
f 547/1/5 542/1/5 541/1/5
f 548/1/5 542/1/5 547/1/5
f 549/1/5 544/1/5 543/1/5
f 550/1/5 544/1/5 549/1/5
f 551/1/5 546/1/5 545/1/5
f 552/1/5 546/1/5 551/1/5
f 559/1/5 554/1/5 553/1/5
f 560/1/5 554/1/5 559/1/5
f 561/1/5 556/1/5 555/1/5
f 562/1/5 556/1/5 561/1/5
f 563/1/5 558/1/5 557/1/5
f 564/1/5 558/1/5 563/1/5
f 571/1/5 566/1/5 565/1/5
f 572/1/5 566/1/5 571/1/5
f 573/1/5 568/1/5 567/1/5
f 574/1/5 568/1/5 573/1/5
f 575/1/5 570/1/5 569/1/5
f 576/1/5 570/1/5 575/1/5
f 577/2/6 578/2/6 583/2/6
f 579/2/6 580/2/6 585/2/6
f 581/2/6 582/2/6 587/2/6
f 583/2/6 584/2/6 589/2/6
f 577/2/6 583/2/6 589/2/6
f 589/2/6 584/2/6 590/2/6
f 585/2/6 586/2/6 591/2/6
f 579/2/6 585/2/6 591/2/6
f 591/2/6 586/2/6 592/2/6
f 587/2/6 588/2/6 593/2/6
f 581/2/6 587/2/6 593/2/6
f 593/2/6 588/2/6 594/2/6
f 595/2/6 596/2/6 601/2/6
f 597/2/6 598/2/6 603/2/6
f 599/2/6 600/2/6 605/2/6
f 601/2/6 602/2/6 607/2/6
f 595/2/6 601/2/6 607/2/6
f 607/2/6 602/2/6 608/2/6
f 603/2/6 604/2/6 609/2/6
f 597/2/6 603/2/6 609/2/6
f 609/2/6 604/2/6 610/2/6
f 605/2/6 606/2/6 611/2/6
f 599/2/6 605/2/6 611/2/6
f 611/2/6 606/2/6 612/2/6
f 613/2/6 614/2/6 619/2/6
f 615/2/6 616/2/6 621/2/6
f 617/2/6 618/2/6 623/2/6
f 619/2/6 620/2/6 625/2/6
f 613/2/6 619/2/6 625/2/6
f 625/2/6 620/2/6 626/2/6
f 621/2/6 622/2/6 627/2/6
f 615/2/6 621/2/6 627/2/6
f 627/2/6 622/2/6 628/2/6
f 623/2/6 624/2/6 629/2/6
f 617/2/6 623/2/6 629/2/6
f 629/2/6 624/2/6 630/2/6
f 631/2/6 632/2/6 637/2/6
f 633/2/6 634/2/6 639/2/6
f 635/2/6 636/2/6 641/2/6
f 637/2/6 638/2/6 643/2/6
f 631/2/6 637/2/6 643/2/6
f 643/2/6 638/2/6 644/2/6
f 639/2/6 640/2/6 645/2/6
f 633/2/6 639/2/6 645/2/6
f 645/2/6 640/2/6 646/2/6
f 641/2/6 642/2/6 647/2/6
f 635/2/6 641/2/6 647/2/6
f 647/2/6 642/2/6 648/2/6
f 649/2/6 650/2/6 655/2/6
f 651/2/6 652/2/6 657/2/6
f 653/2/6 654/2/6 659/2/6
f 655/2/6 656/2/6 661/2/6
f 649/2/6 655/2/6 661/2/6
f 661/2/6 656/2/6 662/2/6
f 657/2/6 658/2/6 663/2/6
f 651/2/6 657/2/6 663/2/6
f 663/2/6 658/2/6 664/2/6
f 659/2/6 660/2/6 665/2/6
f 653/2/6 659/2/6 665/2/6
f 665/2/6 660/2/6 666/2/6
f 667/2/6 668/2/6 673/2/6
f 669/2/6 670/2/6 675/2/6
f 671/2/6 672/2/6 677/2/6
f 673/2/6 674/2/6 679/2/6
f 667/2/6 673/2/6 679/2/6
f 679/2/6 674/2/6 680/2/6
f 675/2/6 676/2/6 681/2/6
f 669/2/6 675/2/6 681/2/6
f 681/2/6 676/2/6 682/2/6
f 677/2/6 678/2/6 683/2/6
f 671/2/6 677/2/6 683/2/6
f 683/2/6 678/2/6 684/2/6
f 685/2/6 686/2/6 691/2/6
f 687/2/6 688/2/6 693/2/6
f 689/2/6 690/2/6 695/2/6
f 691/2/6 692/2/6 697/2/6
f 685/2/6 691/2/6 697/2/6
f 697/2/6 692/2/6 698/2/6
f 693/2/6 694/2/6 699/2/6
f 687/2/6 693/2/6 699/2/6
f 699/2/6 694/2/6 700/2/6
f 695/2/6 696/2/6 701/2/6
f 689/2/6 695/2/6 701/2/6
f 701/2/6 696/2/6 702/2/6
f 703/2/6 704/2/6 709/2/6
f 705/2/6 706/2/6 711/2/6
f 707/2/6 708/2/6 713/2/6
f 709/2/6 710/2/6 715/2/6
f 703/2/6 709/2/6 715/2/6
f 715/2/6 710/2/6 716/2/6
f 711/2/6 712/2/6 717/2/6
f 705/2/6 711/2/6 717/2/6
f 717/2/6 712/2/6 718/2/6
f 713/2/6 714/2/6 719/2/6
f 707/2/6 713/2/6 719/2/6
f 719/2/6 714/2/6 720/2/6
f 721/2/6 722/2/6 727/2/6
f 723/2/6 724/2/6 729/2/6
f 725/2/6 726/2/6 731/2/6
f 727/2/6 728/2/6 733/2/6
f 721/2/6 727/2/6 733/2/6
f 733/2/6 728/2/6 734/2/6
f 729/2/6 730/2/6 735/2/6
f 723/2/6 729/2/6 735/2/6
f 735/2/6 730/2/6 736/2/6
f 731/2/6 732/2/6 737/2/6
f 725/2/6 731/2/6 737/2/6
f 737/2/6 732/2/6 738/2/6
f 739/2/6 740/2/6 745/2/6
f 745/2/6 740/2/6 746/2/6
f 741/2/6 742/2/6 747/2/6
f 747/2/6 742/2/6 748/2/6
f 743/2/6 744/2/6 749/2/6
f 749/2/6 744/2/6 750/2/6
f 751/2/6 752/2/6 757/2/6
f 757/2/6 752/2/6 758/2/6
f 753/2/6 754/2/6 759/2/6
f 759/2/6 754/2/6 760/2/6
f 755/2/6 756/2/6 761/2/6
f 761/2/6 756/2/6 762/2/6
f 763/2/6 764/2/6 769/2/6
f 769/2/6 764/2/6 770/2/6
f 765/2/6 766/2/6 771/2/6
f 771/2/6 766/2/6 772/2/6
f 767/2/6 768/2/6 773/2/6
f 773/2/6 768/2/6 774/2/6
